<svg width="33" height="44" viewBox="0 0 33 44" fill="none" xmlns="http://www.w3.org/2000/svg">
<path d="M20.1568 31.0706C20.1568 31.0706 20.2866 33.9308 23.2221 33.1603C23.2221 33.1603 22.4416 29.3054 20.2932 30.8971C20.2932 30.8971 22.2397 31.1828 22.5189 32.759C22.5186 32.7592 22.0433 31.4677 20.1568 31.0706Z" fill="#111111"/>
<path d="M26.6177 25.0285C26.6177 25.0285 28.5643 25.3137 28.8445 26.8898C28.8445 26.8898 28.3687 25.5993 26.4821 25.202C26.4821 25.202 26.6109 28.0622 29.5466 27.2926C29.5466 27.2923 28.7665 23.4366 26.6177 25.0285Z" fill="#111111"/>
<path d="M21.2229 5.71866C21.2229 5.71866 17.3029 6.3172 18.8098 8.51717C18.8098 8.51717 19.1857 6.6018 20.7857 6.39568C20.7857 6.39568 19.4648 6.80819 18.9794 8.65974C18.9791 8.65947 21.8667 8.66029 21.2229 5.71866Z" fill="#111111"/>
<path d="M14.0596 4.71848C14.0596 4.71848 12.6782 3.32887 13.4115 1.90341C13.4115 1.90341 13.0077 3.21725 14.2738 4.66064C14.2738 4.66064 15.9064 2.29963 13.0953 1.16284C13.0953 1.16311 11.3775 4.70735 14.0596 4.71848Z" fill="#111111"/>
<path d="M11.7541 4.90286C11.7541 4.90286 9.87524 5.48158 8.93429 4.18104C8.93429 4.18104 9.92647 5.13994 11.8002 4.68805C11.8002 4.68805 10.4343 2.16546 8.12482 4.11939C8.12482 4.11939 10.513 7.25953 11.7541 4.90286Z" fill="#111111"/>
<path d="M12.9428 6.32101C12.9428 6.32101 10.5319 4.74537 9.43642 7.55229C9.43642 7.55229 13.0425 9.19039 13.0044 6.53201C13.0044 6.53201 11.6284 7.92652 10.1774 7.2256C10.1777 7.2256 11.5098 7.60199 12.9428 6.32101Z" fill="#111111"/>
<path d="M10.931 11.5786C10.931 11.5786 9.10252 12.3001 8.06294 11.0765C8.06294 11.0765 9.1269 11.9561 10.9603 11.3608C10.9603 11.3608 9.40056 8.95089 7.25128 11.0775C7.25128 11.0775 9.87829 14.0243 10.931 11.5786Z" fill="#111111"/>
<path d="M11.9807 14.4683C11.9807 14.4683 10.8751 11.8241 8.38017 13.5401C8.38017 13.5401 10.441 16.9008 11.9123 14.678C11.9123 14.678 9.98487 15.0682 9.17896 13.6813C9.17869 13.6813 10.0701 14.7334 11.9807 14.4683Z" fill="#111111"/>
<path d="M7.55725 21.7186C7.55725 21.7186 8.62476 19.0586 5.62876 18.5652C5.62876 18.5652 4.74314 22.3984 7.36111 21.8221C7.36111 21.8221 5.70382 20.7695 6.10185 19.218C6.10157 19.218 6.00104 20.5881 7.55725 21.7186Z" fill="#111111"/>
<path d="M6.40895 27.0528C6.40895 27.0528 5.13763 24.4824 2.75716 26.3516C2.75716 26.3516 5.02668 29.5762 6.35526 27.2657C6.35526 27.2657 4.45581 27.776 3.56334 26.442C3.56334 26.442 4.51964 27.4362 6.40895 27.0528Z" fill="#111111"/>
<path d="M7.01215 30.9623C7.01215 30.9623 4.40103 32.1865 6.25199 34.5728C6.25199 34.5728 9.53725 32.3685 7.22636 31.019C7.22636 31.019 7.71341 32.9097 6.35526 33.7747C6.35526 33.7747 7.37237 32.841 7.01215 30.9623Z" fill="#111111"/>
<path d="M4.85956 24.2719C4.85956 24.2719 3.58796 21.7013 1.20749 23.5705C1.20749 23.5705 3.47702 26.7956 4.80449 24.4848C4.80449 24.4848 2.90505 24.9951 2.01258 23.6612C2.01258 23.6612 2.96915 24.6557 4.85956 24.2719Z" fill="#111111"/>
<path d="M3.59701 21.742C3.59701 21.742 1.69756 22.252 0.805087 20.9183C0.805087 20.9183 1.76111 21.9128 3.65179 21.5291C3.65179 21.5291 2.3791 18.9585 0 20.8276C0 20.8279 2.26953 24.0525 3.59701 21.742Z" fill="#111111"/>
<path d="M18.5987 12.0302C18.5987 12.0302 21.2254 12.0313 20.6397 9.35605C20.6397 9.35605 17.0745 9.90027 18.4447 11.9009C18.4447 11.9009 18.7863 10.1593 20.242 9.97169C20.242 9.97169 19.0405 10.3473 18.5987 12.0302Z" fill="#111111"/>
<path d="M24.206 21.9851C24.206 21.9851 27.0936 22.0301 26.4958 19.0787C26.4958 19.0787 22.5666 19.6178 24.0389 21.84C24.0389 21.84 24.4441 19.9306 26.0469 19.7492C26.0471 19.749 24.7197 20.1414 24.206 21.9851Z" fill="#111111"/>
<path d="M20.2014 21.7939C20.2014 21.7939 23.0889 21.8389 22.4909 18.8878C22.4909 18.8878 18.5625 19.4269 20.0343 21.6488C20.0343 21.6488 20.44 19.7403 22.0436 19.558C22.0436 19.558 20.7167 19.951 20.2014 21.7939Z" fill="#111111"/>
<path d="M27.7313 16.1556C27.7313 16.1556 28.9182 14.5995 30.4465 15.113C30.4465 15.113 29.0765 14.9069 27.8192 16.3576C27.8192 16.3576 30.4122 17.6182 31.1406 14.6956C31.1406 14.6956 27.3546 13.5227 27.7313 16.1556Z" fill="#111111"/>
<path d="M25.7756 16.4513C25.7756 16.4513 27.3949 14.0808 24.5764 12.9608C24.5764 12.9608 22.8791 16.5151 25.5617 16.5108C25.5617 16.5108 24.1723 15.129 24.8972 13.699C24.8972 13.6992 24.501 15.0155 25.7756 16.4513Z" fill="#111111"/>
<path d="M19.0205 15.6624C19.0205 15.6624 21.825 14.9789 20.4904 12.2751C20.4904 12.2751 16.8279 13.7856 18.8219 15.5649C18.8219 15.5649 18.7255 13.6164 20.2288 13.0366C20.2288 13.0366 19.0462 13.7503 19.0205 15.6624Z" fill="#111111"/>
<path d="M22.5074 13.1939C22.5074 13.1939 21.284 11.6655 22.1666 10.3253C22.1666 10.3253 21.6237 11.5897 22.726 13.1588C22.726 13.1588 24.6051 10.9847 21.9318 9.55621C21.9318 9.55621 19.8417 12.8981 22.5074 13.1939Z" fill="#111111"/>
<path d="M23.919 29.8412C23.919 29.8412 24.048 32.7019 26.9837 31.9315C26.9837 31.9315 26.203 28.076 24.0546 29.668C24.0546 29.668 26.0014 29.9531 26.2803 31.5293C26.28 31.529 25.8053 30.2385 23.919 29.8412Z" fill="#111111"/>
<path d="M21.3062 29.1061C21.3062 29.1061 24.0466 28.2002 22.4959 25.6118C22.4959 25.6118 18.9685 27.411 21.1007 29.0241C21.1007 29.0241 20.8454 27.0895 22.2976 26.3912C22.2976 26.3915 21.1758 27.1981 21.3062 29.1061Z" fill="#111111"/>
<path d="M29.6776 29.5222C29.6776 29.5222 27.6639 26.1338 26.1614 28.336C26.1614 28.336 28.0937 27.9726 28.8799 29.3704C28.8799 29.3704 28.0044 28.3058 26.0904 28.5445C26.0904 28.5445 27.1588 31.2051 29.6776 29.5222Z" fill="#111111"/>
<path d="M24.9426 27.4324C24.9426 27.4324 26.8736 26.4925 25.4697 24.7355C25.4697 24.7355 23.0478 26.4124 24.7838 27.3917C24.7838 27.3917 24.3994 25.9893 25.4012 25.3302C25.4012 25.3302 24.6545 26.0366 24.9426 27.4324Z" fill="#111111"/>
<path d="M30.1183 25.2726C30.1183 25.2726 30.1271 27.4053 32.3352 26.9203C32.3352 26.9203 31.8715 24.0278 30.2246 25.1477C30.2246 25.1477 31.6647 25.4185 31.8252 26.6001C31.8252 26.6001 31.5107 25.6249 30.1183 25.2726Z" fill="#111111"/>
<path d="M28.8887 20.4143C28.8887 20.4143 30.1403 19.6572 31.0585 20.4265C31.0585 20.4265 30.1657 19.9124 28.8952 20.5775C28.8952 20.5775 30.3441 22.1526 31.654 20.3247C31.654 20.3247 29.3516 18.4878 28.8887 20.4143Z" fill="#111111"/>
<path d="M29.946 23.231C29.946 23.231 30.3857 21.8457 31.5871 21.8262C31.5871 21.8262 30.5747 22.0209 30.0591 23.3508C30.0591 23.3508 32.195 23.5919 31.9685 21.3613C31.9687 21.3613 29.0173 21.478 29.946 23.231Z" fill="#111111"/>
<path d="M28.0849 19.5295C28.0849 19.5295 29.6855 18.1068 27.8534 16.7929C27.8534 16.7929 25.98 19.0573 27.9184 19.5341C27.9184 19.5341 27.1664 18.2874 27.9518 17.3836C27.9518 17.3833 27.4256 18.2637 28.0849 19.5295Z" fill="#111111"/>
<path d="M23.5491 18.6678C23.5491 18.6678 25.1511 17.2456 23.3188 15.9312C23.3188 15.9312 21.4456 18.1956 23.3829 18.673C23.3829 18.673 22.6317 17.4257 23.4157 16.5224C23.4157 16.5227 22.8901 17.4029 23.5491 18.6678Z" fill="#111111"/>
<path d="M30.6035 12.5038C30.6035 12.5038 29.5727 12.4386 28.735 13.5952C28.735 13.5952 30.741 14.3646 31.0897 12.1497C31.0897 12.1497 28.2043 11.5229 28.655 13.4518C28.655 13.4521 29.4349 12.2214 30.6035 12.5038Z" fill="#111111"/>
<path d="M27.4365 13.2205C27.4365 13.2205 27.8795 11.134 25.6182 11.1492C25.6182 11.1492 25.4585 14.0737 27.3064 13.3209C27.3064 13.3209 25.9556 12.7572 26.0482 11.5683C26.0485 11.568 26.1507 12.5869 27.4365 13.2205Z" fill="#111111"/>
<path d="M9.59888 9.49157C9.59888 9.49157 8.13471 9.43101 7.80243 8.28553C7.80243 8.28553 8.25661 9.20425 9.68545 9.35225C9.68545 9.35225 9.36467 7.24407 7.25128 8.04194C7.25128 8.04194 8.13389 10.8369 9.59888 9.49157Z" fill="#111111"/>
<path d="M24.1324 10.3272C24.1324 10.3272 23.1229 9.27294 23.6894 8.2217C23.6894 8.2217 23.3697 9.19473 24.2923 10.2862C24.2923 10.2862 25.5417 8.55057 23.4642 7.6658C23.464 7.66607 22.1351 10.2821 24.1324 10.3272Z" fill="#111111"/>
<path d="M27.1776 9.14044C27.1776 9.14044 26.149 9.22897 25.4957 10.4966C25.4957 10.4966 27.5951 10.9597 27.6063 8.71788C27.6063 8.71788 24.6583 8.52588 25.396 10.3666C25.396 10.3663 25.9797 9.03398 27.1776 9.14044Z" fill="#111111"/>
<path d="M19.1408 5.34363C19.1408 5.34363 19.7248 4.01104 20.9227 4.1175C20.9227 4.1175 19.8949 4.20603 19.2408 5.47398C19.2408 5.47398 21.3396 5.93728 21.3511 3.69494C21.3511 3.69494 18.4033 3.50321 19.1408 5.34363Z" fill="#111111"/>
<path d="M14.2007 7.97107C14.2007 7.97107 12.2722 7.02737 11.7254 9.20263C11.7254 9.20263 14.5428 10.0828 14.2672 8.12125C14.2672 8.12125 13.3802 9.27786 12.242 8.89332C12.242 8.89305 13.2622 9.04947 14.2007 7.97107Z" fill="#111111"/>
<path d="M16.1316 9.31368C16.1316 9.31368 14.3385 8.43679 13.8298 10.4586C13.8298 10.4586 16.4491 11.2763 16.1933 9.45354C16.1933 9.45354 15.3684 10.5281 14.3105 10.1708C14.3105 10.171 15.2589 10.316 16.1316 9.31368Z" fill="#111111"/>
<path d="M13.2257 13.1021C13.2257 13.1021 15.3742 12.9888 14.7762 10.826C14.7762 10.826 11.8857 11.4268 13.0942 13.0032C13.0942 13.0032 13.2964 11.5642 14.479 11.3469C14.4787 11.3469 13.5125 11.7067 13.2257 13.1021Z" fill="#111111"/>
<path d="M15.1857 20.1251C15.1857 20.1251 15.3876 18.6861 16.5704 18.4688C16.5704 18.4688 15.604 18.8284 15.318 20.2239C15.318 20.2239 17.4654 20.1107 16.8671 17.9479C16.8671 17.9482 13.9766 18.5489 15.1857 20.1251Z" fill="#111111"/>
<path d="M7.79504 18.1978C7.79504 18.1978 6.33279 18.1016 6.03009 16.9477C6.03009 16.9477 6.46071 17.8776 7.88571 18.0609C7.88571 18.0609 7.61671 15.9448 5.48387 16.6911C5.48387 16.6911 6.29718 19.5067 7.79504 18.1978Z" fill="#111111"/>
<path d="M15.3857 22.6172C15.3857 22.6172 17.533 22.504 16.9348 20.341C16.9348 20.341 14.0445 20.942 15.2534 22.5181C15.2534 22.5181 15.4553 21.0791 16.6381 20.8616C16.6381 20.8618 15.6717 21.2217 15.3857 22.6172Z" fill="#111111"/>
<path d="M15.5465 25.1795C15.5465 25.1795 17.6938 25.0655 17.0969 22.9035C17.0969 22.9035 14.2056 23.5042 15.4153 25.0799C15.4153 25.0799 15.6171 23.6414 16.7989 23.4244C16.7989 23.4244 15.8325 23.7839 15.5465 25.1795Z" fill="#111111"/>
<path d="M12.4272 17.3056C12.4272 17.3056 12.1421 15.1926 10.0153 15.9546C10.0153 15.9546 10.8497 18.764 12.3374 17.4433C12.3374 17.4433 10.8754 17.3583 10.5626 16.2072C10.5623 16.2074 11.0006 17.1337 12.4272 17.3056Z" fill="#111111"/>
<path d="M10.7587 20.0548C10.7587 20.0548 12.9094 20.1132 12.49 17.9105C12.49 17.9105 9.55861 18.2782 10.6363 19.9459C10.6363 19.9459 10.9537 18.5275 12.1503 18.4058C12.1503 18.4055 11.1576 18.6861 10.7587 20.0548Z" fill="#111111"/>
<path d="M8.74365 24.4976C8.74365 24.4976 9.00389 22.381 6.75217 22.589C6.75217 22.589 6.84749 25.5165 8.62257 24.6095C8.62257 24.6095 7.22881 24.1627 7.21758 22.9706C7.21758 22.9706 7.40714 23.9764 8.74365 24.4976Z" fill="#111111"/>
<path d="M2.71166 29.3598C2.71166 29.3598 0.723731 28.5445 0.322968 30.7516C0.322968 30.7516 3.19378 31.4438 2.78644 29.5053C2.78644 29.5053 1.97916 30.7179 0.817689 30.4078C0.817689 30.408 1.84603 30.4971 2.71166 29.3598Z" fill="#111111"/>
<path d="M3.08364 27.7866C3.08364 27.7866 3.05323 25.6545 0.851089 26.1618C0.851089 26.1618 1.34335 29.0496 2.979 27.9131C2.979 27.9131 1.53592 27.657 1.36362 26.4768C1.36334 26.4771 1.6885 27.449 3.08364 27.7866Z" fill="#111111"/>
<path d="M7.9553 28.4674C7.9553 28.4674 6.4651 26.9301 5.20364 28.7914C5.20364 28.7914 7.55289 30.5688 7.96543 28.6306C7.96543 28.6306 6.7352 29.4198 5.79589 28.6743C5.79589 28.6746 6.70288 29.165 7.9553 28.4674Z" fill="#111111"/>
<path d="M4.17009 30.2144C4.17009 30.2144 2.17998 31.0231 3.4628 32.8706C3.4628 32.8706 5.99339 31.3588 4.32706 30.2649C4.32706 30.2649 4.61414 31.6901 3.57046 32.2813C3.57046 32.2813 4.36376 31.6268 4.17009 30.2144Z" fill="#111111"/>
<path d="M2.90288 19.6026C2.90288 19.6026 1.50802 19.1559 1.49788 17.9637C1.49788 17.9637 1.68772 18.9696 3.02396 19.4912C3.02396 19.4912 3.2842 17.3746 1.03275 17.5829C1.03275 17.5829 1.1278 20.5099 2.90288 19.6026Z" fill="#111111"/>
<path d="M3.68551 19.2971C3.68551 19.2971 3.54526 17.851 4.64537 17.3676C4.64537 17.3676 3.78879 17.94 3.837 19.3631C3.837 19.3631 5.90025 18.7588 4.81274 16.7932C4.81274 16.7929 2.13999 18.0422 3.68551 19.2971Z" fill="#111111"/>
<path d="M12.4521 20.7693C12.4521 20.7693 9.52106 21.1375 10.5987 22.8047C10.5987 22.8047 10.917 21.3868 12.1125 21.2643C12.1125 21.2643 11.12 21.5457 10.7217 22.9141C10.7217 22.9141 12.8715 22.9717 12.4521 20.7693Z" fill="#111111"/>
<path d="M10.4804 25.1765C10.4804 25.1765 12.631 25.2344 12.2116 23.0316C12.2116 23.0316 9.28027 23.3999 10.3579 25.0671C10.3579 25.0671 10.6754 23.6492 11.872 23.5267C11.8722 23.5267 10.8795 23.8081 10.4804 25.1765Z" fill="#111111"/>
<path d="M17.0972 4.47164C17.0972 4.47164 15.8604 3.69224 16.1522 2.5359C16.1522 2.5359 16.0804 3.557 17.243 4.39451C17.243 4.39451 18.0291 2.40962 15.7974 2.0517C15.7974 2.0517 15.1482 4.90832 17.0972 4.47164Z" fill="#111111"/>
<path d="M16.728 7.06728C16.728 7.06728 15.4914 6.28815 15.7829 5.13127C15.7829 5.13127 15.7122 6.15236 16.874 6.98988C16.874 6.98988 17.661 5.00499 15.4287 4.64706C15.4287 4.64734 14.7806 7.50396 16.728 7.06728Z" fill="#111111"/>
<path d="M21.7793 0.982804C21.7793 0.982804 20.751 1.07161 20.0974 2.33929C20.0974 2.33929 22.1965 2.80231 22.2077 0.560787C22.2077 0.560787 19.2599 0.36906 19.9974 2.20893C19.9974 2.20921 20.5819 0.877164 21.7793 0.982804Z" fill="#111111"/>
<path d="M18.1108 2.21246C18.1108 2.21246 16.774 1.61718 16.8956 0.431241C16.8956 0.431241 16.9726 1.45234 18.2431 2.11523C18.2431 2.11523 18.7351 0.0393685 16.474 0.00189209C16.474 0.00189209 16.2458 2.92206 18.1108 2.21246Z" fill="#111111"/>
<path d="M21.9247 43.9747C20.4104 43.5777 19.6053 42.2527 19.3963 41.8609C18.5693 38.4345 19.3246 30.9248 19.3246 30.9248C23.8973 31.6513 26.6621 27.9403 26.6621 27.9403C24.1677 31.0332 19.3939 29.7671 19.3939 29.7671C19.9927 28.7037 20.0557 25.8182 20.0557 25.8182C22.8944 24.1027 30.6484 25.5081 30.6484 25.5081C28.6544 24.2926 25.8954 24.3686 25.8954 24.3686C28.0422 23.2286 29.268 20.6451 29.268 20.6451C26.521 24.3841 20.056 24.6611 20.056 24.6611C27.185 20.4056 28.5027 13.5021 28.5027 13.5021C26.0488 20.7215 19.4623 23.7076 19.4623 23.7076C20.0121 21.7254 18.9128 18.5332 18.9128 18.5332C24.6766 16.7096 25.4357 10.9947 25.4357 10.9947C22.2781 17.5802 18.8441 17.3755 18.8441 17.3755C16.5433 12.3373 19.7368 2.20892 19.7368 2.20892C17.8138 5.18803 18.3299 6.62897 17.7431 8.68175C17.0663 11.0555 11.8681 4.3831 11.8681 4.3831C13.8303 9.88615 17.2202 9.89973 17.2145 10.1523C16.9901 19.5548 20.0557 27.0441 16.5433 30.8577C15.4963 31.9953 14.6274 20.4173 14.6274 20.4173C16.1626 15.4663 15.4706 12.8938 15.4706 12.8938C15.4706 15.8574 13.9514 18.2067 13.9514 18.2067C14.1678 13.274 9.49202 8.94191 9.49202 8.94191C16.4674 19.3525 11.9443 29.6878 11.9443 29.6878C10.4108 27.3181 9.7098 24.6605 9.7098 24.6605C10.6099 22.9953 10.3355 19.7327 10.3355 19.7327C10.4889 21.4808 9.56845 23.6845 9.56845 23.6845C8.64913 22.3166 8.80254 18.4411 8.80254 18.4411C6.88638 22.6963 11.1022 29.992 11.1022 29.992C5.726 27.1802 3.66576 20.5075 3.66576 20.5075C5.45097 29.4271 10.7187 30.3714 10.7187 30.3714C7.49834 31.588 2.43936 29.6878 2.43936 29.6878C8.49518 33.411 13.7081 30.5997 13.7081 30.5997C14.9701 32.8844 14.5401 39.1941 14.05 42.0987C13.7163 42.6354 12.9422 43.638 11.6591 43.9745H21.9247V43.9747Z" fill="#111111"/>
</svg>
