<svg width="196" height="44" viewBox="0 0 196 44" fill="none" xmlns="http://www.w3.org/2000/svg">
<path d="M20.1568 31.0705C20.1568 31.0705 20.2866 33.9307 23.2221 33.1602C23.2221 33.1602 22.4416 29.3053 20.2932 30.897C20.2932 30.897 22.2397 31.1827 22.5189 32.7588C22.5186 32.7591 22.0433 31.4675 20.1568 31.0705Z" fill="#111111"/>
<path d="M26.6177 25.0284C26.6177 25.0284 28.5643 25.3135 28.8445 26.8897C28.8445 26.8897 28.3687 25.5992 26.4821 25.2019C26.4821 25.2019 26.6109 28.062 29.5466 27.2924C29.5466 27.2921 28.7665 23.4364 26.6177 25.0284Z" fill="#111111"/>
<path d="M21.2229 5.71875C21.2229 5.71875 17.3029 6.31729 18.8098 8.51726C18.8098 8.51726 19.1857 6.60189 20.7857 6.39577C20.7857 6.39577 19.4648 6.80828 18.9794 8.65983C18.9791 8.65956 21.8667 8.66038 21.2229 5.71875Z" fill="#111111"/>
<path d="M14.0596 4.71873C14.0596 4.71873 12.6782 3.32911 13.4115 1.90365C13.4115 1.90365 13.0077 3.2175 14.2738 4.66088C14.2738 4.66088 15.9064 2.29987 13.0953 1.16309C13.0953 1.16336 11.3775 4.70759 14.0596 4.71873Z" fill="#111111"/>
<path d="M11.7541 4.90299C11.7541 4.90299 9.87524 5.4817 8.93429 4.18116C8.93429 4.18116 9.92647 5.14007 11.8002 4.68818C11.8002 4.68818 10.4343 2.16558 8.12482 4.11951C8.12482 4.11951 10.513 7.25965 11.7541 4.90299Z" fill="#111111"/>
<path d="M12.9428 6.32113C12.9428 6.32113 10.5319 4.74549 9.43642 7.55242C9.43642 7.55242 13.0425 9.19052 13.0044 6.53214C13.0044 6.53214 11.6284 7.92664 10.1774 7.22572C10.1777 7.22572 11.5098 7.60211 12.9428 6.32113Z" fill="#111111"/>
<path d="M10.931 11.5787C10.931 11.5787 9.10252 12.3002 8.06294 11.0765C8.06294 11.0765 9.1269 11.9562 10.9603 11.3609C10.9603 11.3609 9.40056 8.95098 7.25128 11.0776C7.25128 11.0776 9.87829 14.0244 10.931 11.5787Z" fill="#111111"/>
<path d="M11.9807 14.4683C11.9807 14.4683 10.8751 11.824 8.38017 13.5401C8.38017 13.5401 10.441 16.9007 11.9123 14.6779C11.9123 14.6779 9.98487 15.0682 9.17896 13.6813C9.17869 13.6813 10.0701 14.7333 11.9807 14.4683Z" fill="#111111"/>
<path d="M7.55725 21.7189C7.55725 21.7189 8.62476 19.0589 5.62876 18.5654C5.62876 18.5654 4.74314 22.3986 7.36111 21.8223C7.36111 21.8223 5.70382 20.7697 6.10185 19.2183C6.10157 19.2183 6.00104 20.5883 7.55725 21.7189Z" fill="#111111"/>
<path d="M6.40895 27.0528C6.40895 27.0528 5.13763 24.4824 2.75716 26.3516C2.75716 26.3516 5.02668 29.5762 6.35526 27.2657C6.35526 27.2657 4.45581 27.776 3.56334 26.442C3.56334 26.442 4.51964 27.4362 6.40895 27.0528Z" fill="#111111"/>
<path d="M7.01215 30.9624C7.01215 30.9624 4.40103 32.1866 6.25199 34.5729C6.25199 34.5729 9.53725 32.3686 7.22636 31.0192C7.22636 31.0192 7.71341 32.9098 6.35526 33.7748C6.35526 33.7748 7.37237 32.8411 7.01215 30.9624Z" fill="#111111"/>
<path d="M4.85956 24.2722C4.85956 24.2722 3.58796 21.7016 1.20749 23.5708C1.20749 23.5708 3.47702 26.7959 4.80449 24.4851C4.80449 24.4851 2.90505 24.9954 2.01258 23.6615C2.01258 23.6615 2.96915 24.656 4.85956 24.2722Z" fill="#111111"/>
<path d="M3.59701 21.742C3.59701 21.742 1.69756 22.252 0.805087 20.9183C0.805087 20.9183 1.76111 21.9128 3.65179 21.5291C3.65179 21.5291 2.3791 18.9584 0 20.8276C0 20.8279 2.26953 24.0525 3.59701 21.742Z" fill="#111111"/>
<path d="M18.5987 12.0301C18.5987 12.0301 21.2254 12.0312 20.6397 9.35596C20.6397 9.35596 17.0745 9.90018 18.4447 11.9008C18.4447 11.9008 18.7863 10.1593 20.242 9.9716C20.242 9.9716 19.0405 10.3472 18.5987 12.0301Z" fill="#111111"/>
<path d="M24.206 21.9849C24.206 21.9849 27.0936 22.03 26.4958 19.0786C26.4958 19.0786 22.5666 19.6177 24.0389 21.8399C24.0389 21.8399 24.4441 19.9305 26.0469 19.7491C26.0471 19.7488 24.7197 20.1413 24.206 21.9849Z" fill="#111111"/>
<path d="M20.2014 21.7937C20.2014 21.7937 23.0889 21.8388 22.4909 18.8877C22.4909 18.8877 18.5625 19.4268 20.0343 21.6487C20.0343 21.6487 20.44 19.7401 22.0436 19.5579C22.0436 19.5579 20.7167 19.9509 20.2014 21.7937Z" fill="#111111"/>
<path d="M27.7313 16.1554C27.7313 16.1554 28.9182 14.5993 30.4465 15.1128C30.4465 15.1128 29.0765 14.9067 27.8192 16.3574C27.8192 16.3574 30.4122 17.6181 31.1406 14.6954C31.1406 14.6954 27.3546 13.5225 27.7313 16.1554Z" fill="#111111"/>
<path d="M25.7756 16.4514C25.7756 16.4514 27.3949 14.0809 24.5764 12.9609C24.5764 12.9609 22.8791 16.5152 25.5617 16.5109C25.5617 16.5109 24.1723 15.1291 24.8972 13.6991C24.8972 13.6993 24.501 15.0156 25.7756 16.4514Z" fill="#111111"/>
<path d="M19.0205 15.6627C19.0205 15.6627 21.825 14.9791 20.4904 12.2754C20.4904 12.2754 16.8279 13.7859 18.8219 15.5652C18.8219 15.5652 18.7255 13.6167 20.2288 13.0369C20.2288 13.0369 19.0462 13.7505 19.0205 15.6627Z" fill="#111111"/>
<path d="M22.5074 13.1938C22.5074 13.1938 21.284 11.6654 22.1666 10.3252C22.1666 10.3252 21.6237 11.5897 22.726 13.1588C22.726 13.1588 24.6051 10.9846 21.9318 9.55615C21.9318 9.55615 19.8417 12.8981 22.5074 13.1938Z" fill="#111111"/>
<path d="M23.919 29.8413C23.919 29.8413 24.048 32.702 26.9837 31.9316C26.9837 31.9316 26.203 28.0761 24.0546 29.668C24.0546 29.668 26.0014 29.9532 26.2803 31.5294C26.28 31.5291 25.8053 30.2386 23.919 29.8413Z" fill="#111111"/>
<path d="M21.3062 29.1061C21.3062 29.1061 24.0466 28.2001 22.4959 25.6118C22.4959 25.6118 18.9685 27.411 21.1007 29.0241C21.1007 29.0241 20.8454 27.0894 22.2976 26.3912C22.2976 26.3915 21.1758 27.198 21.3062 29.1061Z" fill="#111111"/>
<path d="M29.6776 29.5224C29.6776 29.5224 27.6639 26.1341 26.1614 28.3362C26.1614 28.3362 28.0937 27.9728 28.8799 29.3706C28.8799 29.3706 28.0044 28.3061 26.0904 28.5448C26.0904 28.5448 27.1588 31.2053 29.6776 29.5224Z" fill="#111111"/>
<path d="M24.9426 27.4323C24.9426 27.4323 26.8736 26.4924 25.4697 24.7354C25.4697 24.7354 23.0478 26.4123 24.7838 27.3916C24.7838 27.3916 24.3994 25.9892 25.4012 25.3301C25.4012 25.3301 24.6545 26.0364 24.9426 27.4323Z" fill="#111111"/>
<path d="M30.1183 25.2728C30.1183 25.2728 30.1271 27.4054 32.3352 26.9204C32.3352 26.9204 31.8715 24.0279 30.2246 25.1479C30.2246 25.1479 31.6647 25.4186 31.8252 26.6002C31.8252 26.6002 31.5107 25.625 30.1183 25.2728Z" fill="#111111"/>
<path d="M28.8887 20.4143C28.8887 20.4143 30.1403 19.6571 31.0585 20.4265C31.0585 20.4265 30.1657 19.9124 28.8952 20.5775C28.8952 20.5775 30.3441 22.1526 31.654 20.3247C31.654 20.3247 29.3516 18.4878 28.8887 20.4143Z" fill="#111111"/>
<path d="M29.946 23.2311C29.946 23.2311 30.3857 21.8458 31.5871 21.8263C31.5871 21.8263 30.5747 22.021 30.0591 23.3508C30.0591 23.3508 32.195 23.592 31.9685 21.3613C31.9687 21.3613 29.0173 21.4781 29.946 23.2311Z" fill="#111111"/>
<path d="M28.0849 19.5296C28.0849 19.5296 29.6855 18.1068 27.8534 16.793C27.8534 16.793 25.98 19.0573 27.9184 19.5342C27.9184 19.5342 27.1664 18.2874 27.9518 17.3836C27.9518 17.3834 27.4256 18.2638 28.0849 19.5296Z" fill="#111111"/>
<path d="M23.5491 18.6677C23.5491 18.6677 25.1511 17.2455 23.3188 15.9312C23.3188 15.9312 21.4456 18.1955 23.3829 18.6729C23.3829 18.6729 22.6317 17.4256 23.4157 16.5224C23.4157 16.5226 22.8901 17.4028 23.5491 18.6677Z" fill="#111111"/>
<path d="M30.6035 12.5041C30.6035 12.5041 29.5727 12.4389 28.735 13.5955C28.735 13.5955 30.741 14.3649 31.0897 12.15C31.0897 12.15 28.2043 11.5232 28.655 13.4521C28.655 13.4524 29.4349 12.2217 30.6035 12.5041Z" fill="#111111"/>
<path d="M27.4365 13.2207C27.4365 13.2207 27.8795 11.1343 25.6182 11.1495C25.6182 11.1495 25.4585 14.074 27.3064 13.3212C27.3064 13.3212 25.9556 12.7574 26.0482 11.5685C26.0485 11.5683 26.1507 12.5872 27.4365 13.2207Z" fill="#111111"/>
<path d="M9.59888 9.49178C9.59888 9.49178 8.13471 9.43122 7.80243 8.28575C7.80243 8.28575 8.25661 9.20446 9.68545 9.35247C9.68545 9.35247 9.36467 7.24428 7.25128 8.04215C7.25128 8.04215 8.13389 10.8371 9.59888 9.49178Z" fill="#111111"/>
<path d="M24.1324 10.3274C24.1324 10.3274 23.1229 9.27316 23.6894 8.22192C23.6894 8.22192 23.3697 9.19494 24.2923 10.2864C24.2923 10.2864 25.5417 8.55078 23.4642 7.66602C23.464 7.66629 22.1351 10.2823 24.1324 10.3274Z" fill="#111111"/>
<path d="M27.1776 9.14068C27.1776 9.14068 26.149 9.22921 25.4957 10.4969C25.4957 10.4969 27.5951 10.9599 27.6063 8.71812C27.6063 8.71812 24.6583 8.52612 25.396 10.3668C25.396 10.3665 25.9797 9.03423 27.1776 9.14068Z" fill="#111111"/>
<path d="M19.1408 5.34384C19.1408 5.34384 19.7248 4.01126 20.9227 4.11771C20.9227 4.11771 19.8949 4.20624 19.2408 5.47419C19.2408 5.47419 21.3396 5.93749 21.3511 3.69515C21.3511 3.69515 18.4033 3.50343 19.1408 5.34384Z" fill="#111111"/>
<path d="M14.2007 7.97125C14.2007 7.97125 12.2722 7.02755 11.7254 9.20282C11.7254 9.20282 14.5428 10.083 14.2672 8.12143C14.2672 8.12143 13.3802 9.27804 12.242 8.8935C12.242 8.89323 13.2622 9.04965 14.2007 7.97125Z" fill="#111111"/>
<path d="M16.1316 9.31371C16.1316 9.31371 14.3385 8.43682 13.8298 10.4586C13.8298 10.4586 16.4491 11.2763 16.1933 9.45357C16.1933 9.45357 15.3684 10.5282 14.3105 10.1708C14.3105 10.1711 15.2589 10.3161 16.1316 9.31371Z" fill="#111111"/>
<path d="M13.2257 13.1022C13.2257 13.1022 15.3742 12.9889 14.7762 10.8262C14.7762 10.8262 11.8857 11.4269 13.0942 13.0033C13.0942 13.0033 13.2964 11.5643 14.479 11.347C14.4787 11.347 13.5125 11.7069 13.2257 13.1022Z" fill="#111111"/>
<path d="M15.1857 20.1249C15.1857 20.1249 15.3876 18.6859 16.5704 18.4686C16.5704 18.4686 15.604 18.8282 15.318 20.2238C15.318 20.2238 17.4654 20.1105 16.8671 17.9478C16.8671 17.948 13.9766 18.5487 15.1857 20.1249Z" fill="#111111"/>
<path d="M7.79504 18.1978C7.79504 18.1978 6.33279 18.1017 6.03009 16.9478C6.03009 16.9478 6.46071 17.8776 7.88571 18.061C7.88571 18.061 7.61671 15.9449 5.48387 16.6912C5.48387 16.6912 6.29718 19.5068 7.79504 18.1978Z" fill="#111111"/>
<path d="M15.3857 22.6171C15.3857 22.6171 17.533 22.5039 16.9348 20.3408C16.9348 20.3408 14.0445 20.9418 15.2534 22.518C15.2534 22.518 15.4553 21.0789 16.6381 20.8614C16.6381 20.8617 15.6717 21.2215 15.3857 22.6171Z" fill="#111111"/>
<path d="M15.5465 25.1793C15.5465 25.1793 17.6938 25.0653 17.0969 22.9033C17.0969 22.9033 14.2056 23.504 15.4153 25.0797C15.4153 25.0797 15.6171 23.6412 16.7989 23.4242C16.7989 23.4242 15.8325 23.7838 15.5465 25.1793Z" fill="#111111"/>
<path d="M12.4272 17.3058C12.4272 17.3058 12.1421 15.1928 10.0153 15.9548C10.0153 15.9548 10.8497 18.7641 12.3374 17.4435C12.3374 17.4435 10.8754 17.3585 10.5626 16.2073C10.5623 16.2076 11.0006 17.1339 12.4272 17.3058Z" fill="#111111"/>
<path d="M10.7587 20.0549C10.7587 20.0549 12.9094 20.1133 12.49 17.9106C12.49 17.9106 9.55861 18.2783 10.6363 19.946C10.6363 19.946 10.9537 18.5276 12.1503 18.406C12.1503 18.4057 11.1576 18.6862 10.7587 20.0549Z" fill="#111111"/>
<path d="M8.74365 24.4977C8.74365 24.4977 9.00389 22.3811 6.75217 22.5891C6.75217 22.5891 6.84749 25.5166 8.62257 24.6096C8.62257 24.6096 7.22881 24.1628 7.21758 22.9706C7.21758 22.9706 7.40714 23.9765 8.74365 24.4977Z" fill="#111111"/>
<path d="M2.71166 29.3596C2.71166 29.3596 0.723731 28.5443 0.322968 30.7514C0.322968 30.7514 3.19378 31.4436 2.78644 29.5051C2.78644 29.5051 1.97916 30.7177 0.817689 30.4076C0.817689 30.4078 1.84603 30.4969 2.71166 29.3596Z" fill="#111111"/>
<path d="M3.08364 27.7868C3.08364 27.7868 3.05323 25.6547 0.851089 26.162C0.851089 26.162 1.34335 29.0499 2.979 27.9134C2.979 27.9134 1.53592 27.6573 1.36362 26.477C1.36334 26.4773 1.6885 27.4493 3.08364 27.7868Z" fill="#111111"/>
<path d="M7.9553 28.4676C7.9553 28.4676 6.4651 26.9303 5.20364 28.7916C5.20364 28.7916 7.55289 30.569 7.96543 28.6308C7.96543 28.6308 6.7352 29.42 5.79589 28.6745C5.79589 28.6748 6.70288 29.1653 7.9553 28.4676Z" fill="#111111"/>
<path d="M4.17009 30.2144C4.17009 30.2144 2.17998 31.0231 3.4628 32.8706C3.4628 32.8706 5.99339 31.3588 4.32706 30.2649C4.32706 30.2649 4.61414 31.6901 3.57046 32.2813C3.57046 32.2813 4.36376 31.6268 4.17009 30.2144Z" fill="#111111"/>
<path d="M2.90288 19.6024C2.90288 19.6024 1.50802 19.1557 1.49788 17.9635C1.49788 17.9635 1.68772 18.9694 3.02396 19.4911C3.02396 19.4911 3.2842 17.3745 1.03275 17.5828C1.03275 17.5828 1.1278 20.5097 2.90288 19.6024Z" fill="#111111"/>
<path d="M3.68551 19.2973C3.68551 19.2973 3.54526 17.8512 4.64537 17.3678C4.64537 17.3678 3.78879 17.9403 3.837 19.3633C3.837 19.3633 5.90025 18.7591 4.81274 16.7935C4.81274 16.7932 2.13999 18.0424 3.68551 19.2973Z" fill="#111111"/>
<path d="M12.4521 20.7695C12.4521 20.7695 9.52106 21.1378 10.5987 22.8049C10.5987 22.8049 10.917 21.3871 12.1125 21.2646C12.1125 21.2646 11.12 21.5459 10.7217 22.9144C10.7217 22.9144 12.8715 22.972 12.4521 20.7695Z" fill="#111111"/>
<path d="M10.4804 25.1766C10.4804 25.1766 12.631 25.2344 12.2116 23.0317C12.2116 23.0317 9.28027 23.4 10.3579 25.0672C10.3579 25.0672 10.6754 23.6493 11.872 23.5268C11.8722 23.5268 10.8795 23.8082 10.4804 25.1766Z" fill="#111111"/>
<path d="M17.0972 4.4717C17.0972 4.4717 15.8604 3.6923 16.1522 2.53596C16.1522 2.53596 16.0804 3.55706 17.243 4.39457C17.243 4.39457 18.0291 2.40968 15.7974 2.05176C15.7974 2.05176 15.1482 4.90838 17.0972 4.4717Z" fill="#111111"/>
<path d="M16.728 7.06718C16.728 7.06718 15.4914 6.28806 15.7829 5.13118C15.7829 5.13118 15.7122 6.15227 16.874 6.98979C16.874 6.98979 17.661 5.0049 15.4287 4.64697C15.4287 4.64724 14.7806 7.50387 16.728 7.06718Z" fill="#111111"/>
<path d="M21.7793 0.982896C21.7793 0.982896 20.751 1.0717 20.0974 2.33938C20.0974 2.33938 22.1965 2.8024 22.2077 0.560879C22.2077 0.560879 19.2599 0.369152 19.9974 2.20903C19.9974 2.2093 20.5819 0.877256 21.7793 0.982896Z" fill="#111111"/>
<path d="M18.1108 2.21252C18.1108 2.21252 16.774 1.61724 16.8956 0.431302C16.8956 0.431302 16.9726 1.4524 18.2431 2.1153C18.2431 2.1153 18.7351 0.0394295 16.474 0.00195312C16.474 0.00195313 16.2458 2.92212 18.1108 2.21252Z" fill="#111111"/>
<path d="M21.9247 43.9748C20.4104 43.5778 19.6053 42.2528 19.3963 41.8609C18.5693 38.4345 19.3246 30.9249 19.3246 30.9249C23.8973 31.6513 26.6621 27.9403 26.6621 27.9403C24.1677 31.0332 19.3939 29.7672 19.3939 29.7672C19.9927 28.7037 20.0557 25.8183 20.0557 25.8183C22.8944 24.1028 30.6484 25.5082 30.6484 25.5082C28.6544 24.2926 25.8954 24.3687 25.8954 24.3687C28.0422 23.2286 29.268 20.6452 29.268 20.6452C26.521 24.3841 20.056 24.6611 20.056 24.6611C27.185 20.4057 28.5027 13.5021 28.5027 13.5021C26.0488 20.7215 19.4623 23.7077 19.4623 23.7077C20.0121 21.7255 18.9128 18.5332 18.9128 18.5332C24.6766 16.7096 25.4357 10.9948 25.4357 10.9948C22.2781 17.5803 18.8441 17.3755 18.8441 17.3755C16.5433 12.3374 19.7368 2.20898 19.7368 2.20898C17.8138 5.18809 18.3299 6.62903 17.7431 8.68181C17.0663 11.0556 11.8681 4.38316 11.8681 4.38316C13.8303 9.88621 17.2202 9.89979 17.2145 10.1524C16.9901 19.5549 20.0557 27.0442 16.5433 30.8578C15.4963 31.9954 14.6274 20.4174 14.6274 20.4174C16.1626 15.4664 15.4706 12.8938 15.4706 12.8938C15.4706 15.8575 13.9514 18.2068 13.9514 18.2068C14.1678 13.274 9.49202 8.94197 9.49202 8.94197C16.4674 19.3525 11.9443 29.6879 11.9443 29.6879C10.4108 27.3182 9.7098 24.6606 9.7098 24.6606C10.6099 22.9953 10.3355 19.7327 10.3355 19.7327C10.4889 21.4808 9.56845 23.6846 9.56845 23.6846C8.64913 22.3167 8.80254 18.4412 8.80254 18.4412C6.88638 22.6964 11.1022 29.992 11.1022 29.992C5.726 27.1802 3.66576 20.5075 3.66576 20.5075C5.45097 29.4272 10.7187 30.3714 10.7187 30.3714C7.49834 31.588 2.43936 29.6879 2.43936 29.6879C8.49518 33.4111 13.7081 30.5998 13.7081 30.5998C14.9701 32.8845 14.5401 39.1941 14.05 42.0988C13.7163 42.6354 12.9422 43.6381 11.6591 43.9745H21.9247V43.9748Z" fill="#111111"/>
<path fill-rule="evenodd" clip-rule="evenodd" d="M66.0158 38.7912C62.6549 42.5602 53.1629 34.0602 49.513 37.3901C48.374 38.4292 48.0001 40.2688 48.9536 41.88C49.1131 42.1494 49.281 42.3919 49.4105 42.6833C49.6428 43.2066 49.3684 43.8181 49.522 43.895C50.1255 44.1967 50.6504 43.8062 50.9196 43.2774C52.3394 43.8176 54.4443 42.4375 54.3411 40.8548C54.3265 40.6343 54.2419 40.4855 54.0866 40.4081C53.4721 40.1012 53.2412 41.8156 51.9828 41.1864C52.2403 40.6804 52.1323 40.4146 51.6516 40.1745C50.6367 41.3056 49.7157 39.3506 50.469 38.2317C51.9584 36.0193 56.7188 40.1368 61.8892 41.0566C63.5219 41.2472 66.3916 41.0924 66.0155 38.7936L66.0158 38.7912Z" fill="#111111"/>
<path fill-rule="evenodd" clip-rule="evenodd" d="M170.684 38.7912C174.045 42.5602 183.537 34.0602 187.186 37.3901C188.325 38.4292 188.699 40.2688 187.746 41.88C187.586 42.1494 187.418 42.3919 187.288 42.6833C187.056 43.2066 187.331 43.8181 187.177 43.895C186.574 44.1967 186.049 43.8062 185.78 43.2774C184.36 43.8176 182.255 42.4375 182.358 40.8548C182.373 40.6343 182.458 40.4855 182.613 40.4081C183.227 40.1012 183.458 41.8156 184.716 41.1864C184.459 40.6804 184.567 40.4146 185.048 40.1745C186.063 41.3056 186.984 39.3506 186.23 38.2317C184.741 36.0193 179.981 40.1368 174.81 41.0566C173.177 41.2472 170.308 41.0924 170.684 38.7936V38.7912H170.684Z" fill="#111111"/>
<path d="M168.709 40.8532C168.709 41.1633 168.577 41.4159 168.311 41.6098C168.046 41.8042 167.685 41.9012 167.23 41.9012C166.967 41.9012 166.737 41.8781 166.541 41.8325C166.345 41.7869 166.162 41.7285 165.991 41.6581V40.9032H166.081C166.25 41.0371 166.44 41.1397 166.65 41.212C166.86 41.2837 167.061 41.3198 167.254 41.3198C167.305 41.3198 167.37 41.3154 167.451 41.3067C167.532 41.2989 167.598 41.2842 167.65 41.2649C167.712 41.2388 167.763 41.2071 167.804 41.1693C167.844 41.131 167.865 41.0737 167.865 40.9993C167.865 40.9298 167.836 40.8706 167.777 40.8201C167.718 40.7701 167.631 40.7318 167.517 40.7052C167.397 40.677 167.271 40.6504 167.138 40.6256C167.005 40.6009 166.879 40.5692 166.763 40.5317C166.495 40.4456 166.303 40.3285 166.186 40.1808C166.068 40.0333 166.009 39.8503 166.009 39.6312C166.009 39.3376 166.142 39.0981 166.408 38.9123C166.673 38.7266 167.015 38.634 167.432 38.634C167.641 38.634 167.848 38.6543 168.052 38.694C168.257 38.7344 168.434 38.7852 168.583 38.8458V39.5711H168.496C168.368 39.4698 168.21 39.3854 168.025 39.3172C167.839 39.2493 167.649 39.2151 167.456 39.2151C167.388 39.2151 167.32 39.2195 167.252 39.229C167.185 39.2385 167.12 39.255 167.057 39.2803C167.002 39.302 166.954 39.3338 166.914 39.3764C166.874 39.4191 166.854 39.4682 166.854 39.5233C166.854 39.6064 166.886 39.6703 166.95 39.7151C167.014 39.7591 167.135 39.7998 167.313 39.8365C167.43 39.8604 167.542 39.8843 167.65 39.9065C167.757 39.9291 167.872 39.96 167.996 39.9999C168.24 40.0787 168.42 40.1865 168.536 40.3226C168.651 40.4584 168.709 40.6354 168.709 40.8532ZM160.625 41.0672C160.704 40.9711 160.763 40.8581 160.802 40.7272C160.841 40.5963 160.859 40.4429 160.859 40.2658C160.859 40.0771 160.838 39.9158 160.793 39.7827C160.749 39.6504 160.691 39.5426 160.62 39.4609C160.547 39.3762 160.463 39.3148 160.369 39.2765C160.274 39.2382 160.175 39.2195 160.073 39.2195C159.969 39.2195 159.871 39.2377 159.779 39.2743C159.686 39.3113 159.603 39.3721 159.525 39.4565C159.454 39.5361 159.396 39.6445 159.351 39.7841C159.307 39.9228 159.284 40.0841 159.284 40.268C159.284 40.4559 159.306 40.6167 159.349 40.7481C159.393 40.8804 159.45 40.9882 159.521 41.0713C159.592 41.1544 159.676 41.216 159.771 41.2557C159.867 41.2953 159.967 41.3149 160.073 41.3149C160.178 41.3149 160.279 41.2945 160.375 41.254C160.47 41.2147 160.553 41.1519 160.625 41.0672ZM161.713 40.268C161.713 40.7707 161.568 41.1699 161.277 41.4656C160.986 41.7613 160.584 41.9096 160.071 41.9096C159.559 41.9096 159.158 41.7613 158.867 41.4656C158.575 41.1699 158.43 40.7707 158.43 40.268C158.43 39.7618 158.575 39.3612 158.867 39.0668C159.157 38.7725 159.559 38.625 160.071 38.625C160.581 38.625 160.982 38.7725 161.275 39.0668C161.567 39.3612 161.713 39.7618 161.713 40.268ZM154.299 39.3017H153.305V41.8444H152.482V39.3017H151.489V38.6899H154.299V39.3017ZM147.169 41.8447H146.377L145.029 39.6795V41.8447H144.276V38.6902H145.257L146.416 40.4975V38.6902H147.169V41.8447H147.169ZM139.761 41.8447H137.459V38.6902H139.761V39.302H138.282V39.8443H139.656V40.4562H138.282V41.2329H139.761V41.8447ZM133.174 38.6899L132.014 41.8444H131.095L129.935 38.6899H130.798L131.567 40.9051L132.336 38.6899H133.174ZM125.775 41.8447H123.473V38.6902H125.775V39.302H124.295V39.8443H125.67V40.4562H124.295V41.2329H125.775V41.8447ZM115.322 41.8447H113.02V38.6902H115.322V39.302H113.843V39.8443H115.217V40.4562H113.843V41.2329H115.322V41.8447ZM104.991 40.8532C104.991 41.1633 104.858 41.4159 104.593 41.6098C104.327 41.8042 103.967 41.9012 103.511 41.9012C103.248 41.9012 103.018 41.8781 102.823 41.8325C102.627 41.7869 102.443 41.7285 102.273 41.6581V40.9032H102.363C102.532 41.0371 102.721 41.1397 102.931 41.212C103.141 41.2837 103.342 41.3198 103.536 41.3198C103.586 41.3198 103.651 41.3154 103.733 41.3067C103.814 41.2989 103.879 41.2842 103.931 41.2649C103.993 41.2388 104.045 41.2071 104.086 41.1693C104.126 41.131 104.146 41.0737 104.146 40.9993C104.146 40.9298 104.117 40.8706 104.058 40.8201C103.999 40.7701 103.912 40.7318 103.798 40.7052C103.679 40.677 103.553 40.6504 103.419 40.6256C103.286 40.6009 103.161 40.5692 103.044 40.5317C102.776 40.4456 102.584 40.3285 102.467 40.1808C102.35 40.0333 102.291 39.8503 102.291 39.6312C102.291 39.3376 102.424 39.0981 102.689 38.9123C102.954 38.7266 103.296 38.634 103.713 38.634C103.923 38.634 104.129 38.6543 104.333 38.694C104.538 38.7344 104.715 38.7852 104.865 38.8458V39.5711H104.777C104.649 39.4698 104.492 39.3854 104.306 39.3172C104.12 39.2493 103.931 39.2151 103.737 39.2151C103.669 39.2151 103.601 39.2195 103.534 39.229C103.466 39.2385 103.401 39.255 103.338 39.2803C103.283 39.302 103.236 39.3338 103.195 39.3764C103.155 39.4191 103.136 39.4682 103.136 39.5233C103.136 39.6064 103.168 39.6703 103.232 39.7151C103.296 39.7591 103.417 39.7998 103.595 39.8365C103.711 39.8604 103.824 39.8843 103.932 39.9065C104.039 39.9291 104.154 39.96 104.278 39.9999C104.522 40.0787 104.701 40.1865 104.817 40.3226C104.933 40.4584 104.991 40.6354 104.991 40.8532ZM96.8929 40.6297L96.5047 39.5081L96.1166 40.6297H96.8929ZM98.1601 41.8447H97.3109L97.0899 41.2068H95.9204L95.6986 41.8447H94.8683L96.0421 38.6902H96.986L98.1601 41.8447ZM90.9034 39.3017H89.9098V41.8444H89.0869V39.3017H88.0934V38.6899H90.9034V39.3017ZM84.0194 40.8532C84.0194 41.1633 83.8866 41.4159 83.6211 41.6098C83.3557 41.8042 82.9952 41.9012 82.5399 41.9012C82.2767 41.9012 82.0469 41.8781 81.8513 41.8325C81.6551 41.7869 81.4719 41.7285 81.3012 41.6581V40.9032H81.3911C81.5603 41.0371 81.7499 41.1397 81.9595 41.212C82.1696 41.2837 82.3709 41.3198 82.5643 41.3198C82.6147 41.3198 82.6796 41.3154 82.7613 41.3067C82.8424 41.2989 82.9078 41.2842 82.9596 41.2649C83.0215 41.2388 83.0733 41.2071 83.1144 41.1693C83.1544 41.131 83.1749 41.0737 83.1749 40.9993C83.1749 40.9298 83.1459 40.8706 83.0867 40.8201C83.0275 40.7701 82.9407 40.7318 82.827 40.7052C82.7073 40.677 82.5813 40.6504 82.4476 40.6256C82.3148 40.6009 82.1893 40.5692 82.0726 40.5317C81.805 40.4456 81.6129 40.3285 81.4957 40.1808C81.3782 40.0333 81.3193 39.8503 81.3193 39.6312C81.3193 39.3376 81.4521 39.0981 81.7176 38.9123C81.983 38.7266 82.3246 38.634 82.7418 38.634C82.9511 38.634 83.1576 38.6543 83.362 38.694C83.5669 38.7344 83.7436 38.7852 83.8932 38.8458V39.5711H83.8055C83.6778 39.4698 83.5203 39.3854 83.3349 39.3172C83.1489 39.2493 82.9593 39.2151 82.7659 39.2151C82.6974 39.2151 82.6295 39.2195 82.5624 39.229C82.4945 39.2385 82.4295 39.255 82.3668 39.2803C82.3115 39.302 82.2641 39.3338 82.2238 39.3764C82.1838 39.4191 82.1641 39.4682 82.1641 39.5233C82.1641 39.6064 82.1961 39.6703 82.2605 39.7151C82.3246 39.7591 82.4451 39.7998 82.6232 39.8365C82.7399 39.8604 82.8522 39.8843 82.9601 39.9065C83.0673 39.9291 83.1826 39.96 83.3067 39.9999C83.5502 40.0787 83.7299 40.1865 83.8458 40.3226C83.9611 40.4584 84.0194 40.6354 84.0194 40.8532ZM76.9618 41.8447H74.6594V38.6902H76.9618V39.302H75.4823V39.8443H76.8567V40.4562H75.4823V41.2329H76.9618V41.8447ZM70.2623 39.3017H68.8091V39.8875H70.1571V40.4994H68.8091V41.8444H67.9862V38.6899H70.2623V39.3017Z" fill="#111111"/>
<path fill-rule="evenodd" clip-rule="evenodd" d="M51.6549 40.7737C51.4053 40.9369 51.1144 41.0184 50.8002 40.9432C50.2365 40.8082 49.9094 40.2423 49.7921 39.7187C49.6601 39.1324 49.7472 38.4836 50.0866 37.9788C50.2565 37.7265 50.4742 37.519 50.7435 37.3732C51.3377 37.0505 52.0488 37.0994 52.6879 37.2417C53.47 37.4158 54.2663 37.7444 55.0007 38.0602C56.8689 38.8624 58.6692 39.7524 60.6401 40.3018C61.0738 40.4226 61.5132 40.5266 61.9569 40.6062C62.4602 40.664 62.9845 40.6787 63.489 40.6366C64.09 40.5861 64.9354 40.425 65.3411 39.9365C65.3721 39.899 65.4 39.8602 65.4247 39.8208C65.4063 39.83 65.3877 39.8393 65.3688 39.8488C64.2396 40.4039 62.873 40.2659 61.6855 39.9952C60.2665 39.6723 58.8563 39.118 57.4984 38.6004C56.1931 38.1031 54.8259 37.5668 53.4612 37.261C52.5002 37.0459 51.3056 36.8985 50.3871 37.3441C50.1814 37.444 49.9932 37.5717 49.8247 37.7254C48.7115 38.7413 48.6041 40.3887 49.3506 41.6495C49.5188 41.9331 49.6971 42.1965 49.8321 42.5001C49.9488 42.763 49.9792 43.0416 49.9664 43.3259C49.9631 43.3982 49.9571 43.4699 49.9502 43.5421C50.1989 43.5369 50.3923 43.3045 50.5101 43.0723L50.6972 42.7049L51.0848 42.8523C51.6749 43.0766 52.3964 42.8485 52.8985 42.5161C53.4234 42.1688 53.9085 41.5803 53.8852 40.9226C53.8647 40.9454 53.8463 40.9663 53.8346 40.9796C53.7181 41.1108 53.608 41.243 53.4793 41.363C52.9783 41.8296 52.3994 41.904 51.7771 41.5928L51.367 41.388L51.5735 40.9815C51.5902 40.9465 51.6393 40.8424 51.6549 40.7737Z" fill="#111111"/>
<path fill-rule="evenodd" clip-rule="evenodd" d="M185.045 40.7737C185.294 40.9369 185.585 41.0184 185.899 40.9432C186.463 40.8082 186.79 40.2423 186.907 39.7187C187.039 39.1324 186.952 38.4836 186.613 37.9788C186.442 37.7265 186.225 37.519 185.956 37.3732C185.362 37.0505 184.65 37.0994 184.012 37.2417C183.229 37.4158 182.433 37.7444 181.699 38.0602C179.831 38.8624 178.03 39.7524 176.06 40.3018C175.625 40.4226 175.186 40.5266 174.743 40.6062C174.239 40.664 173.715 40.6787 173.211 40.6366C172.609 40.5861 171.764 40.425 171.359 39.9365C171.327 39.899 171.3 39.8602 171.275 39.8208C171.293 39.83 171.312 39.8393 171.331 39.8488C172.46 40.4039 173.827 40.2659 175.014 39.9952C176.433 39.6723 177.843 39.118 179.201 38.6004C180.506 38.1031 181.874 37.5668 183.239 37.261C184.2 37.0459 185.394 36.8985 186.313 37.3441C186.518 37.444 186.707 37.5717 186.875 37.7254C187.989 38.7413 188.096 40.3887 187.349 41.6495C187.181 41.9331 187.003 42.1965 186.868 42.5001C186.751 42.763 186.721 43.0416 186.733 43.3259C186.737 43.3982 186.743 43.4699 186.75 43.5421C186.501 43.5369 186.307 43.3045 186.19 43.0723L186.003 42.7049L185.615 42.8523C185.025 43.0766 184.303 42.8485 183.801 42.5161C183.276 42.1688 182.791 41.5803 182.815 40.9226C182.835 40.9454 182.853 40.9663 182.865 40.9796C182.981 41.1108 183.091 41.243 183.22 41.363C183.721 41.8296 184.3 41.904 184.923 41.5928L185.332 41.388L185.126 40.9815C185.109 40.9465 185.06 40.8424 185.045 40.7737Z" fill="#111111"/>
<path d="M137.438 3.088L136.84 1.36028L136.242 3.088H137.438ZM139.389 4.95938H138.081L137.741 3.97684H135.94L135.598 4.95938H134.319L136.127 0.100209H137.581L139.389 4.95938ZM126.536 3.43208C126.536 3.91004 126.331 4.29865 125.922 4.59738C125.513 4.89692 124.958 5.04628 124.257 5.04628C123.851 5.04628 123.497 5.0107 123.196 4.94037C122.894 4.8703 122.612 4.77987 122.349 4.67179V3.50893H122.487C122.748 3.71505 123.04 3.8731 123.362 3.98472C123.686 4.09497 123.996 4.15065 124.294 4.15065C124.371 4.15065 124.471 4.14386 124.597 4.13055C124.722 4.11833 124.823 4.09606 124.903 4.06592C124.999 4.02573 125.078 3.97684 125.141 3.919C125.203 3.86007 125.234 3.77181 125.234 3.65721C125.234 3.55021 125.19 3.45896 125.099 3.38102C125.008 3.30417 124.874 3.24524 124.699 3.20396C124.514 3.16051 124.32 3.11923 124.114 3.08148C123.91 3.04374 123.717 2.99458 123.537 2.93674C123.125 2.80421 122.829 2.62362 122.648 2.39659C122.467 2.16929 122.376 1.8874 122.376 1.55011C122.376 1.09795 122.581 0.72916 122.99 0.442928C123.399 0.156695 123.925 0.0141215 124.567 0.0141215C124.89 0.0141215 125.208 0.0453519 125.522 0.106455C125.838 0.168915 126.11 0.246855 126.34 0.340275V1.45751H126.206C126.009 1.30163 125.766 1.17127 125.481 1.06645C125.194 0.961623 124.902 0.909482 124.604 0.909482C124.498 0.909482 124.394 0.916271 124.291 0.930664C124.186 0.945057 124.086 0.970856 123.99 1.00969C123.904 1.04309 123.831 1.09225 123.77 1.15797C123.708 1.22369 123.677 1.29945 123.677 1.38418C123.677 1.51236 123.727 1.6104 123.826 1.67938C123.925 1.74727 124.11 1.80973 124.384 1.86649C124.564 1.90315 124.737 1.94008 124.903 1.97457C125.068 2.00906 125.246 2.05713 125.437 2.11823C125.812 2.23962 126.089 2.40555 126.267 2.61493C126.446 2.82376 126.536 3.09669 126.536 3.43208ZM112.5 3.088L111.902 1.36028L111.304 3.088H112.5ZM114.452 4.95938H113.144L112.803 3.97684H111.002L110.66 4.95938H109.382L111.19 0.100209H112.644L114.452 4.95938ZM99.807 5.05958C99.4418 5.05958 99.1057 5.00609 98.7967 4.89909C98.4877 4.79209 98.2226 4.63295 98.0012 4.42113C97.7788 4.21066 97.6068 3.9467 97.4854 3.63032C97.363 3.31395 97.3022 2.94869 97.3022 2.53427C97.3022 2.14892 97.3605 1.79914 97.4764 1.48493C97.5933 1.17073 97.7629 0.901334 97.9842 0.677291C98.1976 0.461123 98.4617 0.294108 98.7765 0.177062C99.0923 0.0589303 99.4361 0 99.8103 0C100.016 0 100.203 0.0111343 100.369 0.0344891C100.534 0.0567577 100.688 0.0869018 100.828 0.123563C100.976 0.165928 101.108 0.211552 101.228 0.262878C101.349 0.314204 101.453 0.360914 101.543 0.405451V1.58406H101.398C101.336 1.53164 101.259 1.47054 101.166 1.39912C101.073 1.32797 100.967 1.25763 100.848 1.18865C100.727 1.11968 100.596 1.06156 100.455 1.01376C100.315 0.965968 100.164 0.942613 100.005 0.942613C99.8262 0.942613 99.6577 0.970584 99.4969 1.02626C99.3361 1.08084 99.1879 1.17317 99.052 1.30135C98.9227 1.426 98.8173 1.58976 98.7373 1.79371C98.6576 1.99874 98.617 2.24695 98.617 2.5378C98.617 2.84305 98.6609 3.09696 98.7474 3.302C98.834 3.50594 98.943 3.66726 99.0756 3.7843C99.2093 3.90461 99.3588 3.98934 99.5229 4.04039C99.6881 4.09172 99.8511 4.11724 100.011 4.11724C100.164 4.11724 100.317 4.09497 100.468 4.04935C100.617 4.00481 100.756 3.94344 100.885 3.8655C100.991 3.80304 101.091 3.73732 101.184 3.66617C101.276 3.59502 101.352 3.53364 101.412 3.48232H101.543V4.643C101.421 4.6965 101.303 4.74782 101.19 4.79562C101.079 4.84342 100.961 4.8847 100.838 4.91918C100.678 4.96481 100.527 4.9993 100.387 5.02401C100.246 5.04736 100.053 5.05958 99.807 5.05958Z" fill="#111111"/>
<path fill-rule="evenodd" clip-rule="evenodd" d="M87.7088 3.74504C88.3843 3.74504 88.9355 3.19919 88.9355 2.52978C88.9355 1.85982 88.3846 1.31396 87.7088 1.31396C87.0333 1.31396 86.4824 1.85982 86.4824 2.52978C86.4824 3.19892 87.0333 3.74504 87.7088 3.74504Z" fill="#111111"/>
<path fill-rule="evenodd" clip-rule="evenodd" d="M148.991 3.74504C149.667 3.74504 150.218 3.19919 150.218 2.52978C150.218 1.85982 149.667 1.31396 148.991 1.31396C148.315 1.31396 147.765 1.85982 147.765 2.52978C147.765 3.19892 148.315 3.74504 148.991 3.74504Z" fill="#111111"/>
<path d="M181.9 31.6753H181.062V24.7343L181.739 24.7663C182.255 26.7175 183.191 28.2742 184.552 29.4416C185.912 30.6091 187.461 31.1954 189.192 31.1954C190.601 31.1954 191.747 30.7691 192.634 29.9106C193.521 29.0576 193.967 27.9488 193.967 26.5842C193.967 25.9979 193.871 25.4539 193.683 24.9583C193.494 24.4573 193.209 23.9989 192.833 23.5828C192.005 22.6552 190.295 21.973 187.697 21.5357L187.493 21.5037L187.24 21.4556C185.197 21.1251 183.804 20.72 183.067 20.2561C182.25 19.7336 181.642 19.1098 181.239 18.3902C180.841 17.6651 180.642 16.823 180.642 15.8687C180.642 14.0989 181.272 12.6166 182.524 11.4226C183.777 10.2336 185.348 9.63672 187.224 9.63672C188.117 9.63672 189.069 9.82329 190.074 10.2019C191.085 10.575 191.682 10.767 191.87 10.767C192.102 10.767 192.355 10.6285 192.629 10.3564C192.747 10.2496 192.833 10.1698 192.897 10.1166H193.607L194.419 16.4498L193.683 16.5457C193 14.5252 192.123 13.0112 191.053 12.0089C189.983 11.0013 188.703 10.5003 187.224 10.5003C185.902 10.5003 184.783 10.9161 183.874 11.7479C182.965 12.5849 182.514 13.5978 182.514 14.7973C182.514 15.1811 182.567 15.5384 182.68 15.8741C182.788 16.2046 182.96 16.5191 183.191 16.8124C183.896 17.6865 185.412 18.2731 187.746 18.577C187.923 18.5985 188.058 18.6091 188.155 18.6196C188.208 18.6302 188.294 18.6463 188.423 18.6677C191.365 19.0623 193.387 19.8993 194.489 21.1841C194.994 21.7652 195.371 22.4156 195.624 23.1353C195.876 23.8498 196 24.6333 196 25.4757C196 27.4214 195.403 29.0156 194.209 30.2577C193.021 31.4999 191.499 32.1236 189.649 32.1236C188.633 32.1236 187.412 31.8839 185.987 31.4092C184.562 30.9347 183.653 30.6949 183.256 30.6949C182.906 30.6949 182.621 30.7748 182.401 30.9347C182.18 31.0941 182.013 31.3445 181.9 31.6753ZM159.186 31.6753V30.8755C160.283 30.8755 161.041 30.6835 161.461 30.3052C161.88 29.9267 162.09 29.2285 162.09 28.2207V13.5123C162.09 12.5099 161.88 11.8223 161.461 11.4492C161.041 11.0706 160.283 10.884 159.186 10.884V10.0525H175.41L177.738 15.0102H176.765C175.695 13.5174 174.603 12.4621 173.49 11.8277C172.377 11.1988 171.054 10.884 169.521 10.884H168.419C167.204 10.884 166.381 11.0652 165.956 11.4331C165.531 11.7957 165.316 12.4887 165.316 13.5123V19.9042H167.774C169.129 19.9042 170.129 19.6269 170.78 19.0672C171.436 18.5075 171.839 17.5852 171.995 16.2896H172.802V24.4779H171.995C171.818 23.0492 171.436 22.0629 170.844 21.5192C170.258 20.9755 169.231 20.7037 167.774 20.7037H165.316V28.2204C165.316 29.2494 165.531 29.953 165.962 30.3207C166.392 30.6884 167.209 30.8753 168.419 30.8753H169.441C170.828 30.8753 172.087 30.5393 173.216 29.8623C174.34 29.1853 175.657 27.9537 177.158 26.1733H177.996L176.259 31.675H159.186V31.6753ZM138.596 31.6753V31.0996L152.319 10.9484H145.371C144.35 10.9484 143.382 11.3856 142.462 12.2544C141.543 13.1234 140.537 14.5787 139.445 16.6098H138.596L140.408 10.0525H156.083V10.6122L142.473 30.7794H149.673C151.603 30.7794 153.781 28.5031 156.206 23.9451L156.287 23.8066H157.115L155.12 31.6753H138.596ZM126.911 31.6753V30.8755C128.008 30.8755 128.761 30.6835 129.185 30.3052C129.605 29.9267 129.815 29.2285 129.815 28.2207V13.5071C129.815 12.5102 129.605 11.8226 129.191 11.444C128.777 11.0709 128.013 10.8843 126.911 10.8843V10.0528H135.913V10.8843C134.821 10.8843 134.069 11.0709 133.654 11.4388C133.246 11.8065 133.041 12.4996 133.041 13.5074V28.2209C133.041 29.2285 133.246 29.9269 133.654 30.3055C134.069 30.6841 134.821 30.8758 135.913 30.8758V31.6756H126.911V31.6753ZM101.717 31.6753V30.8437C102.809 30.8437 103.562 30.6572 103.976 30.2892C104.385 29.9215 104.589 29.2285 104.589 28.2207V13.5071C104.589 12.4996 104.385 11.8065 103.976 11.4386C103.562 11.0709 102.809 10.884 101.717 10.884V10.0525H109.547C112.101 10.0525 114.064 10.191 115.43 10.4683C116.796 10.7401 117.995 11.1985 119.038 11.8329C120.7 12.8458 121.99 14.1678 122.915 15.8097C123.84 17.4516 124.303 19.2375 124.303 21.1781C124.303 22.9373 123.937 24.5632 123.201 26.0506C122.464 27.5379 121.442 28.732 120.141 29.6277C119.103 30.3473 117.936 30.8698 116.64 31.1897C115.35 31.5148 113.763 31.6747 111.881 31.6747H101.717V31.6753ZM107.815 28.1566C107.815 29.2173 108.063 29.9318 108.558 30.2944C109.052 30.6623 110.047 30.8435 111.553 30.8435C114.521 30.8435 116.79 29.9853 118.35 28.2685C119.909 26.5465 120.689 24.0624 120.689 20.7998C120.689 17.5638 119.866 15.1009 118.221 13.4164C116.581 11.7264 114.182 10.884 111.031 10.884C109.778 10.884 108.934 11.0706 108.488 11.4437C108.041 11.8223 107.815 12.5314 107.815 13.5709V28.1566ZM87.0368 13.5071V20.7039H88.4563C90.6289 20.7039 92.1668 20.3308 93.0702 19.5791C93.9736 18.8328 94.4253 17.5801 94.4253 15.8315C94.4253 14.179 94.0328 12.942 93.2532 12.1159C92.4681 11.2949 91.2905 10.8843 89.7148 10.8843C88.7199 10.8843 88.0208 11.0763 87.6282 11.4546C87.236 11.8332 87.0368 12.5153 87.0368 13.5071ZM87.0368 21.6634V28.2207C87.0368 29.2282 87.2412 29.9212 87.6444 30.2892C88.0476 30.6623 88.8059 30.8543 89.9082 30.8755V31.6753H80.9062V30.8755C82.0195 30.8541 82.7829 30.6623 83.1971 30.2892C83.6058 29.9215 83.8102 29.2285 83.8102 28.2207V13.5071C83.8102 12.5102 83.6003 11.8226 83.1864 11.444C82.7722 11.0709 82.0088 10.8843 80.9065 10.8843V10.0528H89.9085C92.3336 10.0528 94.2481 10.5858 95.6463 11.6469C97.0499 12.7076 97.749 14.1472 97.749 15.9596C97.749 17.2072 97.3509 18.3052 96.5606 19.2489C95.7649 20.1926 94.6464 20.9014 93.1998 21.3812L98.7707 29.4685C99.4052 30.3427 100.18 30.812 101.105 30.8758V31.6756H96.8028L90.0326 21.6639H87.0368V21.6634ZM59.7734 31.6753V30.8755C60.8705 30.8755 61.6288 30.6835 62.0482 30.3052C62.4676 29.9267 62.6774 29.2285 62.6774 28.2207V13.5123C62.6774 12.5099 62.4676 11.8223 62.0482 11.4492C61.6288 11.0706 60.8705 10.884 59.7734 10.884V10.0525H75.9971L78.3255 15.0102H77.3522C76.2822 13.5174 75.1903 12.4621 74.0774 11.8277C72.9641 11.1988 71.6413 10.884 70.1089 10.884H69.0066C67.7912 10.884 66.9685 11.0652 66.5437 11.4331C66.1188 11.7957 65.9038 12.4887 65.9038 13.5123V19.9042H68.3612C69.7164 19.9042 70.7165 19.6269 71.3671 19.0672C72.0231 18.5075 72.4264 17.5852 72.5825 16.2896H73.3892V24.4779H72.5825C72.405 23.0492 72.0231 22.0629 71.4317 21.5192C70.8455 20.9755 69.8185 20.7037 68.3612 20.7037H65.9038V28.2204C65.9038 29.2494 66.1188 29.953 66.5491 30.3207C66.9792 30.6884 67.7966 30.8753 69.0066 30.8753H70.0284C71.4158 30.8753 72.674 30.5393 73.8034 29.8623C74.9274 29.1853 76.2447 27.9537 77.745 26.1733H78.5838L76.8468 31.675H59.7734V31.6753ZM46.8298 28.2207C46.8298 29.2282 47.0342 29.9267 47.4429 30.3052C47.8571 30.6838 48.6099 30.8755 49.7015 30.8755V31.6753H40.6995V30.8755C41.7966 30.8755 42.5494 30.6835 42.9742 30.3052C43.3936 29.9267 43.6035 29.2285 43.6035 28.2207V13.5071C43.6035 12.5102 43.3936 11.8226 42.9797 11.444C42.5655 11.0709 41.8021 10.8843 40.6998 10.8843V10.0528H49.7018C52.1269 10.0528 54.0414 10.5858 55.4395 11.6469C56.8432 12.7076 57.5422 14.1472 57.5422 15.9596C57.5422 16.8765 57.311 17.7349 56.8486 18.5292C56.3863 19.329 55.7357 19.9951 54.8966 20.5391C54.2674 20.9443 53.5415 21.2321 52.7188 21.4081C51.8907 21.5787 50.6485 21.6639 48.9923 21.6639H46.8307V28.2207H46.8298ZM46.8298 13.5071V20.7039H48.2494C50.4219 20.7039 51.9598 20.3308 52.8632 19.5791C53.7666 18.8328 54.2183 17.5801 54.2183 15.8315C54.2183 14.179 53.8258 12.942 53.0462 12.1159C52.2611 11.2949 51.0835 10.8843 49.5078 10.8843C48.5129 10.8843 47.8138 11.0763 47.4213 11.4546C47.0287 11.8332 46.8298 12.5153 46.8298 13.5071Z" fill="#111111"/>
</svg>
