<svg width="23" height="31" viewBox="0 0 23 31" fill="none" xmlns="http://www.w3.org/2000/svg">
<path d="M14.0486 21.8907C14.0486 21.8907 14.1391 23.9058 16.1851 23.363C16.1851 23.363 15.6411 20.647 14.1437 21.7684C14.1437 21.7684 15.5004 21.9697 15.695 23.0802C15.6948 23.0804 15.3635 22.1704 14.0486 21.8907Z" fill="#BDBDBD"/>
<path d="M18.5518 17.6336C18.5518 17.6336 19.9085 17.8345 20.1038 18.945C20.1038 18.945 19.7722 18.0358 18.4573 17.7559C18.4573 17.7559 18.547 19.771 20.5931 19.2288C20.5931 19.2286 20.0494 16.5121 18.5518 17.6336Z" fill="#BDBDBD"/>
<path d="M14.7917 4.02905C14.7917 4.02905 12.0596 4.45075 13.1098 6.00073C13.1098 6.00073 13.3718 4.65126 14.487 4.50604C14.487 4.50604 13.5663 4.79668 13.228 6.10118C13.2278 6.10099 15.2403 6.10156 14.7917 4.02905Z" fill="#BDBDBD"/>
<path d="M9.7991 3.32438C9.7991 3.32438 8.83628 2.34534 9.34738 1.34104C9.34738 1.34104 9.06596 2.2667 9.9484 3.28363C9.9484 3.28363 11.0863 1.62019 9.12705 0.819275C9.12705 0.819466 7.92978 3.31654 9.7991 3.32438Z" fill="#BDBDBD"/>
<path d="M8.19231 3.45433C8.19231 3.45433 6.88278 3.86206 6.22696 2.94577C6.22696 2.94577 6.91848 3.62136 8.22439 3.30299C8.22439 3.30299 7.27245 1.52571 5.66278 2.90234C5.66278 2.90234 7.32724 5.11471 8.19231 3.45433Z" fill="#BDBDBD"/>
<path d="M9.02071 4.45348C9.02071 4.45348 7.3404 3.34337 6.5769 5.32098C6.5769 5.32098 9.09021 6.47509 9.06367 4.60214C9.06367 4.60214 8.10467 5.58463 7.09335 5.09081C7.09354 5.09081 8.022 5.35599 9.02071 4.45348Z" fill="#BDBDBD"/>
<path d="M7.61856 8.15768C7.61856 8.15768 6.34415 8.66605 5.6196 7.80391C5.6196 7.80391 6.36114 8.42363 7.63899 8.00423C7.63899 8.00423 6.55187 6.30636 5.05389 7.80468C5.05389 7.80468 6.88484 9.88081 7.61856 8.15768Z" fill="#BDBDBD"/>
<path d="M8.35019 10.1936C8.35019 10.1936 7.57962 8.33058 5.8407 9.53961C5.8407 9.53961 7.27701 11.9073 8.30245 10.3413C8.30245 10.3413 6.95912 10.6162 6.39743 9.6391C6.39724 9.6391 7.0185 10.3803 8.35019 10.1936Z" fill="#BDBDBD"/>
<path d="M5.26718 15.3018C5.26718 15.3018 6.01121 13.4277 3.92309 13.08C3.92309 13.08 3.30584 15.7807 5.13048 15.3747C5.13048 15.3747 3.9754 14.6331 4.25281 13.54C4.25262 13.54 4.18255 14.5052 5.26718 15.3018Z" fill="#BDBDBD"/>
<path d="M4.46688 19.0599C4.46688 19.0599 3.58081 17.2489 1.92169 18.5659C1.92169 18.5659 3.50348 20.8378 4.42946 19.2099C4.42946 19.2099 3.1056 19.5694 2.48358 18.6296C2.48358 18.6296 3.15009 19.33 4.46688 19.0599Z" fill="#BDBDBD"/>
<path d="M4.88723 21.8143C4.88723 21.8143 3.06736 22.6769 4.35742 24.3581C4.35742 24.3581 6.64715 22.8051 5.03653 21.8543C5.03653 21.8543 5.37599 23.1864 4.4294 23.7958C4.4294 23.7958 5.13829 23.138 4.88723 21.8143Z" fill="#BDBDBD"/>
<path d="M3.38699 17.1007C3.38699 17.1007 2.50073 15.2896 0.841614 16.6065C0.841614 16.6065 2.42341 18.8788 3.34862 17.2507C3.34862 17.2507 2.02476 17.6103 1.40274 16.6704C1.40274 16.6704 2.06944 17.3711 3.38699 17.1007Z" fill="#BDBDBD"/>
<path d="M2.507 15.3182C2.507 15.3182 1.18315 15.6776 0.561121 14.7379C0.561121 14.7379 1.22744 15.4386 2.54519 15.1682C2.54519 15.1682 1.65816 13.3571 0 14.674C0 14.6742 1.58179 16.9461 2.507 15.3182Z" fill="#BDBDBD"/>
<path d="M12.9627 8.47579C12.9627 8.47579 14.7935 8.47655 14.3853 6.59174C14.3853 6.59174 11.9004 6.97517 12.8554 8.38471C12.8554 8.38471 13.0935 7.1577 14.108 7.02549C14.108 7.02549 13.2707 7.2901 12.9627 8.47579Z" fill="#BDBDBD"/>
<path d="M16.8708 15.4895C16.8708 15.4895 18.8833 15.5212 18.4667 13.4418C18.4667 13.4418 15.7281 13.8216 16.7544 15.3873C16.7544 15.3873 17.0367 14.042 18.1538 13.9142C18.154 13.914 17.2288 14.1905 16.8708 15.4895Z" fill="#BDBDBD"/>
<path d="M14.0797 15.3548C14.0797 15.3548 16.0923 15.3865 15.6755 13.3073C15.6755 13.3073 12.9375 13.6871 13.9633 15.2526C13.9633 15.2526 14.246 13.9079 15.3637 13.7795C15.3637 13.7795 14.4389 14.0564 14.0797 15.3548Z" fill="#BDBDBD"/>
<path d="M19.3279 11.3823C19.3279 11.3823 20.1551 10.286 21.2203 10.6478C21.2203 10.6478 20.2655 10.5025 19.3892 11.5246C19.3892 11.5246 21.1964 12.4128 21.7041 10.3537C21.7041 10.3537 19.0654 9.52732 19.3279 11.3823Z" fill="#BDBDBD"/>
<path d="M17.9648 11.5907C17.9648 11.5907 19.0934 9.92052 17.129 9.13147C17.129 9.13147 15.946 11.6356 17.8157 11.6326C17.8157 11.6326 16.8474 10.6591 17.3525 9.65151C17.3525 9.6517 17.0765 10.5791 17.9648 11.5907Z" fill="#BDBDBD"/>
<path d="M13.2567 11.0349C13.2567 11.0349 15.2114 10.5533 14.2812 8.64838C14.2812 8.64838 11.7285 9.71257 13.1183 10.9662C13.1183 10.9662 13.0511 9.59337 14.0988 9.18487C14.0988 9.18487 13.2746 9.68769 13.2567 11.0349Z" fill="#BDBDBD"/>
<path d="M15.687 9.29562C15.687 9.29562 14.8343 8.2188 15.4495 7.27458C15.4495 7.27458 15.071 8.16542 15.8393 9.27094C15.8393 9.27094 17.149 7.73913 15.2858 6.73273C15.2858 6.73273 13.8291 9.08726 15.687 9.29562Z" fill="#BDBDBD"/>
<path d="M16.6708 21.0245C16.6708 21.0245 16.7608 23.04 18.8069 22.4972C18.8069 22.4972 18.2627 19.7808 16.7653 20.9024C16.7653 20.9024 18.1222 21.1033 18.3166 22.2138C18.3164 22.2136 17.9855 21.3044 16.6708 21.0245Z" fill="#BDBDBD"/>
<path d="M14.8498 20.5066C14.8498 20.5066 16.7598 19.8683 15.679 18.0447C15.679 18.0447 13.2205 19.3123 14.7066 20.4488C14.7066 20.4488 14.5287 19.0858 15.5407 18.5939C15.5407 18.5941 14.7589 19.1623 14.8498 20.5066Z" fill="#BDBDBD"/>
<path d="M20.6843 20.7997C20.6843 20.7997 19.2809 18.4124 18.2337 19.9639C18.2337 19.9639 19.5804 19.7079 20.1284 20.6927C20.1284 20.6927 19.5182 19.9427 18.1842 20.1109C18.1842 20.1109 18.9288 21.9854 20.6843 20.7997Z" fill="#BDBDBD"/>
<path d="M17.3843 19.3274C17.3843 19.3274 18.7301 18.6652 17.7516 17.4272C17.7516 17.4272 16.0637 18.6087 17.2736 19.2987C17.2736 19.2987 17.0057 18.3106 17.7039 17.8463C17.7039 17.8463 17.1834 18.3439 17.3843 19.3274Z" fill="#BDBDBD"/>
<path d="M20.9915 17.8057C20.9915 17.8057 20.9976 19.3082 22.5366 18.9665C22.5366 18.9665 22.2134 16.9286 21.0656 17.7177C21.0656 17.7177 22.0693 17.9084 22.1812 18.7409C22.1812 18.7409 21.962 18.0538 20.9915 17.8057Z" fill="#BDBDBD"/>
<path d="M20.1345 14.3828C20.1345 14.3828 21.0068 13.8493 21.6468 14.3914C21.6468 14.3914 21.0246 14.0292 20.1391 14.4977C20.1391 14.4977 21.1489 15.6075 22.0619 14.3196C22.0619 14.3196 20.4572 13.0255 20.1345 14.3828Z" fill="#BDBDBD"/>
<path d="M20.8715 16.3672C20.8715 16.3672 21.1779 15.3913 22.0153 15.3775C22.0153 15.3775 21.3097 15.5147 20.9503 16.4516C20.9503 16.4516 22.439 16.6215 22.2811 15.0499C22.2813 15.0499 20.2242 15.1322 20.8715 16.3672Z" fill="#BDBDBD"/>
<path d="M19.5743 13.7594C19.5743 13.7594 20.6899 12.757 19.413 11.8314C19.413 11.8314 18.1072 13.4267 19.4582 13.7627C19.4582 13.7627 18.9341 12.8843 19.4815 12.2475C19.4815 12.2473 19.1147 12.8676 19.5743 13.7594Z" fill="#BDBDBD"/>
<path d="M16.413 13.1523C16.413 13.1523 17.5295 12.1503 16.2525 11.2242C16.2525 11.2242 14.9469 12.8196 16.2971 13.1559C16.2971 13.1559 15.7736 12.2771 16.3201 11.6408C16.3201 11.641 15.9537 12.2611 16.413 13.1523Z" fill="#BDBDBD"/>
<path d="M21.3297 8.80953C21.3297 8.80953 20.6113 8.76361 20.0274 9.57849C20.0274 9.57849 21.4255 10.1205 21.6686 8.56003C21.6686 8.56003 19.6576 8.11843 19.9717 9.47747C19.9717 9.47766 20.5152 8.61054 21.3297 8.80953Z" fill="#BDBDBD"/>
<path d="M19.1224 9.31445C19.1224 9.31445 19.4311 7.84445 17.8551 7.85516C17.8551 7.85516 17.7438 9.91561 19.0317 9.38524C19.0317 9.38524 18.0903 8.98804 18.1548 8.15039C18.155 8.15019 18.2262 8.86807 19.1224 9.31445Z" fill="#BDBDBD"/>
<path d="M6.6901 6.6872C6.6901 6.6872 5.66962 6.64454 5.43803 5.8375C5.43803 5.8375 5.75458 6.48477 6.75043 6.58905C6.75043 6.58905 6.52686 5.10374 5.05389 5.66587C5.05389 5.66587 5.66905 7.63506 6.6901 6.6872Z" fill="#BDBDBD"/>
<path d="M16.8195 7.27593C16.8195 7.27593 16.1159 6.53318 16.5108 5.79254C16.5108 5.79254 16.288 6.47808 16.931 7.24704C16.931 7.24704 17.8018 6.02424 16.3538 5.40088C16.3536 5.40107 15.4275 7.24417 16.8195 7.27593Z" fill="#BDBDBD"/>
<path d="M18.942 6.4398C18.942 6.4398 18.225 6.50218 17.7697 7.39531C17.7697 7.39531 19.2329 7.72154 19.2408 6.14209C19.2408 6.14209 17.186 6.00682 17.7002 7.30367C17.7002 7.30348 18.1071 6.3648 18.942 6.4398Z" fill="#BDBDBD"/>
<path d="M13.3406 3.76477C13.3406 3.76477 13.7476 2.82591 14.5825 2.90091C14.5825 2.90091 13.8662 2.96329 13.4103 3.85661C13.4103 3.85661 14.8731 4.18303 14.8811 2.6032C14.8811 2.6032 12.8266 2.46812 13.3406 3.76477Z" fill="#BDBDBD"/>
<path d="M9.89742 5.61591C9.89742 5.61591 8.55332 4.95103 8.17224 6.4836C8.17224 6.4836 10.1359 7.10371 9.94381 5.72172C9.94381 5.72172 9.3256 6.5366 8.53232 6.26568C8.53232 6.26549 9.24332 6.37569 9.89742 5.61591Z" fill="#BDBDBD"/>
<path d="M11.2432 6.56189C11.2432 6.56189 9.99346 5.94408 9.63892 7.36855C9.63892 7.36855 11.4645 7.94465 11.2862 6.66043C11.2862 6.66043 10.7113 7.41753 9.97398 7.16573C9.97398 7.16593 10.635 7.2681 11.2432 6.56189Z" fill="#BDBDBD"/>
<path d="M9.218 9.23099C9.218 9.23099 10.7154 9.15121 10.2986 7.62744C10.2986 7.62744 8.28401 8.05067 9.12636 9.16135C9.12636 9.16135 9.26726 8.14748 10.0915 7.99442C10.0913 7.99442 9.41789 8.24793 9.218 9.23099Z" fill="#BDBDBD"/>
<path d="M10.584 14.179C10.584 14.179 10.7247 13.1651 11.5491 13.0121C11.5491 13.0121 10.8755 13.2654 10.6762 14.2486C10.6762 14.2486 12.1728 14.1688 11.7559 12.6451C11.7559 12.6453 9.74125 13.0685 10.584 14.179Z" fill="#BDBDBD"/>
<path d="M5.4329 12.8212C5.4329 12.8212 4.41375 12.7534 4.20278 11.9405C4.20278 11.9405 4.50291 12.5956 5.49609 12.7247C5.49609 12.7247 5.30861 11.2339 3.82208 11.7597C3.82208 11.7597 4.38893 13.7434 5.4329 12.8212Z" fill="#BDBDBD"/>
<path d="M10.7234 15.9348C10.7234 15.9348 12.22 15.855 11.803 14.3311C11.803 14.3311 9.78861 14.7545 10.6312 15.865C10.6312 15.865 10.7719 14.8511 11.5963 14.6978C11.5963 14.698 10.9227 14.9515 10.7234 15.9348Z" fill="#BDBDBD"/>
<path d="M10.8354 17.7401C10.8354 17.7401 12.332 17.6597 11.916 16.1365C11.916 16.1365 9.90084 16.5598 10.744 17.6699C10.744 17.6699 10.8847 16.6564 11.7083 16.5035C11.7083 16.5035 11.0347 16.7568 10.8354 17.7401Z" fill="#BDBDBD"/>
<path d="M8.66142 12.1926C8.66142 12.1926 8.46267 10.7038 6.98035 11.2407C6.98035 11.2407 7.5619 13.22 8.59879 12.2896C8.59879 12.2896 7.57984 12.2297 7.36181 11.4187C7.36162 11.4189 7.66709 12.0715 8.66142 12.1926Z" fill="#BDBDBD"/>
<path d="M7.49848 14.1295C7.49848 14.1295 8.99741 14.1706 8.70511 12.6187C8.70511 12.6187 6.66205 12.8778 7.41314 14.0527C7.41314 14.0527 7.63441 13.0534 8.46837 12.9677C8.46837 12.9675 7.77646 13.1652 7.49848 14.1295Z" fill="#BDBDBD"/>
<path d="M6.09412 17.2596C6.09412 17.2596 6.2755 15.7684 4.70612 15.9149C4.70612 15.9149 4.77256 17.9775 6.00973 17.3384C6.00973 17.3384 5.03832 17.0237 5.03049 16.1837C5.03049 16.1837 5.16261 16.8924 6.09412 17.2596Z" fill="#BDBDBD"/>
<path d="M1.89 20.6853C1.89 20.6853 0.504478 20.1109 0.225159 21.6659C0.225159 21.6659 2.22603 22.1536 1.94213 20.7878C1.94213 20.7878 1.37948 21.6422 0.569965 21.4237C0.569965 21.4238 1.28669 21.4866 1.89 20.6853Z" fill="#BDBDBD"/>
<path d="M2.14922 19.5769C2.14922 19.5769 2.12803 18.0747 0.593201 18.4321C0.593201 18.4321 0.936288 20.4668 2.07629 19.666C2.07629 19.666 1.07051 19.4856 0.950417 18.6541C0.950226 18.6543 1.17685 19.339 2.14922 19.5769Z" fill="#BDBDBD"/>
<path d="M5.54459 20.0565C5.54459 20.0565 4.50597 18.9734 3.62677 20.2848C3.62677 20.2848 5.26412 21.537 5.55165 20.1715C5.55165 20.1715 4.69422 20.7275 4.03955 20.2023C4.03955 20.2025 4.67169 20.548 5.54459 20.0565Z" fill="#BDBDBD"/>
<path d="M2.90645 21.2874C2.90645 21.2874 1.5194 21.8572 2.41349 23.1588C2.41349 23.1588 4.17723 22.0937 3.01585 21.323C3.01585 21.323 3.21594 22.3271 2.48852 22.7437C2.48852 22.7437 3.04143 22.2825 2.90645 21.2874Z" fill="#BDBDBD"/>
<path d="M2.02322 13.8108C2.02322 13.8108 1.05104 13.4961 1.04397 12.6562C1.04397 12.6562 1.17628 13.3648 2.1076 13.7324C2.1076 13.7324 2.28898 12.2412 0.719788 12.3879C0.719788 12.3879 0.786038 14.4501 2.02322 13.8108Z" fill="#BDBDBD"/>
<path d="M2.56875 13.5957C2.56875 13.5957 2.471 12.5768 3.23775 12.2363C3.23775 12.2363 2.64073 12.6396 2.67433 13.6422C2.67433 13.6422 4.11236 13.2165 3.3544 11.8316C3.3544 11.8314 1.49157 12.7115 2.56875 13.5957Z" fill="#BDBDBD"/>
<path d="M8.67881 14.6329C8.67881 14.6329 6.63593 14.8923 7.38702 16.0669C7.38702 16.0669 7.60888 15.068 8.44206 14.9817C8.44206 14.9817 7.75035 15.1799 7.47275 16.144C7.47275 16.144 8.97111 16.1846 8.67881 14.6329Z" fill="#BDBDBD"/>
<path d="M7.30445 17.738C7.30445 17.738 8.80339 17.7787 8.51108 16.2268C8.51108 16.2268 6.46801 16.4863 7.2191 17.6609C7.2191 17.6609 7.44039 16.6619 8.27434 16.5756C8.27453 16.5756 7.58262 16.7738 7.30445 17.738Z" fill="#BDBDBD"/>
<path d="M11.9163 3.15045C11.9163 3.15045 11.0542 2.60133 11.2576 1.78664C11.2576 1.78664 11.2075 2.50605 12.0178 3.09612C12.0178 3.09612 12.5658 1.69767 11.0103 1.4455C11.0103 1.4455 10.5578 3.45812 11.9163 3.15045Z" fill="#BDBDBD"/>
<path d="M11.6589 4.97926C11.6589 4.97926 10.7971 4.43033 11.0002 3.61525C11.0002 3.61525 10.951 4.33466 11.7607 4.92473C11.7607 4.92473 12.3092 3.52628 10.7534 3.27411C10.7534 3.2743 10.3016 5.28692 11.6589 4.97926Z" fill="#BDBDBD"/>
<path d="M15.1795 0.692461C15.1795 0.692461 14.4627 0.755027 14.0072 1.64816C14.0072 1.64816 15.4702 1.97439 15.4781 0.395131C15.4781 0.395131 13.4235 0.260051 13.9375 1.55633C13.9375 1.55652 14.3449 0.618033 15.1795 0.692461Z" fill="#BDBDBD"/>
<path d="M12.6227 1.55879C12.6227 1.55879 11.691 1.13939 11.7757 0.303839C11.7757 0.303839 11.8294 1.02325 12.7149 1.49029C12.7149 1.49029 13.0578 0.0277466 11.4819 0.00134277C11.4819 0.00134277 11.3229 2.05874 12.6227 1.55879Z" fill="#BDBDBD"/>
<path d="M15.2809 30.9822C14.2255 30.7025 13.6644 29.769 13.5187 29.4929C12.9423 27.0788 13.4687 21.7879 13.4687 21.7879C16.6557 22.2997 18.5827 19.6852 18.5827 19.6852C16.8442 21.8643 13.517 20.9723 13.517 20.9723C13.9343 20.223 13.9782 18.1901 13.9782 18.1901C15.9568 16.9815 21.361 17.9716 21.361 17.9716C19.9713 17.1152 18.0483 17.1688 18.0483 17.1688C19.5446 16.3656 20.399 14.5454 20.399 14.5454C18.4844 17.1797 13.9784 17.3748 13.9784 17.3748C18.9472 14.3767 19.8655 9.51282 19.8655 9.51282C18.1552 14.5992 13.5647 16.7031 13.5647 16.7031C13.9479 15.3065 13.1817 13.0574 13.1817 13.0574C17.1989 11.7726 17.728 7.74625 17.728 7.74625C15.5272 12.3861 13.1338 12.2418 13.1338 12.2418C11.5302 8.6922 13.756 1.55627 13.756 1.55627C12.4157 3.65519 12.7754 4.6704 12.3665 6.11667C11.8947 7.78911 8.27175 3.08808 8.27175 3.08808C9.63933 6.96523 12.002 6.9748 11.998 7.15274C11.8416 13.7772 13.9782 19.0538 11.5302 21.7407C10.8005 22.5422 10.1949 14.3849 10.1949 14.3849C11.2648 10.8967 10.7826 9.08424 10.7826 9.08424C10.7826 11.1722 9.72371 12.8275 9.72371 12.8275C9.87454 9.3521 6.61569 6.29997 6.61569 6.29997C11.4773 13.6347 8.32482 20.9164 8.32482 20.9164C7.25604 19.2468 6.76747 17.3745 6.76747 17.3745C7.39484 16.2012 7.20354 13.9026 7.20354 13.9026C7.31045 15.1342 6.66895 16.6868 6.66895 16.6868C6.02822 15.7231 6.13513 12.9926 6.13513 12.9926C4.79963 15.9906 7.73793 21.1307 7.73793 21.1307C3.99088 19.1496 2.55496 14.4484 2.55496 14.4484C3.7992 20.7327 7.47064 21.398 7.47064 21.398C5.22615 22.2552 1.7002 20.9164 1.7002 20.9164C5.92092 23.5396 9.55417 21.5589 9.55417 21.5589C10.4338 23.1686 10.134 27.614 9.79245 29.6605C9.5599 30.0385 9.02036 30.7449 8.12607 30.982H15.2809V30.9822Z" fill="#BDBDBD"/>
</svg>
